<mxfile host="app.diagrams.net" agent="Mozilla/5.0 (Macintosh; Intel Mac OS X 10_15_7) AppleWebKit/537.36 (KHTML, like Gecko) Chrome/131.0.0.0 Safari/537.36" version="26.0.11">
  <diagram id="C5RBs43oDa-KdzZeNtuy" name="data">
    <mxGraphModel dx="1224" dy="664" grid="1" gridSize="10" guides="1" tooltips="1" connect="1" arrows="1" fold="1" page="1" pageScale="1" pageWidth="827" pageHeight="1169" math="0" shadow="0">
      <root>
        <mxCell id="WIyWlLk6GJQsqaUBKTNV-0" />
        <mxCell id="WIyWlLk6GJQsqaUBKTNV-1" parent="WIyWlLk6GJQsqaUBKTNV-0" />
        <mxCell id="7hEb1Mnn6MyJIdi7MjDk-0" value="&lt;font style=&quot;font-size: 48px;&quot;&gt;Contectual&lt;/font&gt;" style="text;html=1;align=center;verticalAlign=middle;whiteSpace=wrap;rounded=0;" vertex="1" parent="WIyWlLk6GJQsqaUBKTNV-1">
          <mxGeometry x="370" y="40" width="60" height="30" as="geometry" />
        </mxCell>
        <mxCell id="7hEb1Mnn6MyJIdi7MjDk-1" value="" style="html=1;verticalLabelPosition=bottom;align=center;labelBackgroundColor=#ffffff;verticalAlign=top;strokeWidth=2;strokeColor=#0080F0;shadow=0;dashed=0;shape=mxgraph.ios7.icons.user;" vertex="1" parent="WIyWlLk6GJQsqaUBKTNV-1">
          <mxGeometry x="35" y="397" width="100" height="100" as="geometry" />
        </mxCell>
        <mxCell id="7hEb1Mnn6MyJIdi7MjDk-2" value="" style="whiteSpace=wrap;html=1;aspect=fixed;fillColor=none;" vertex="1" parent="WIyWlLk6GJQsqaUBKTNV-1">
          <mxGeometry x="260" y="120" width="530" height="530" as="geometry" />
        </mxCell>
        <mxCell id="7hEb1Mnn6MyJIdi7MjDk-6" value="" style="endArrow=classic;html=1;rounded=0;exitX=0.46;exitY=-0.01;exitDx=0;exitDy=0;exitPerimeter=0;entryX=0;entryY=0.5;entryDx=0;entryDy=0;" edge="1" parent="WIyWlLk6GJQsqaUBKTNV-1" source="7hEb1Mnn6MyJIdi7MjDk-1" target="7hEb1Mnn6MyJIdi7MjDk-7">
          <mxGeometry width="50" height="50" relative="1" as="geometry">
            <mxPoint x="86" y="327" as="sourcePoint" />
            <mxPoint x="310" y="367" as="targetPoint" />
            <Array as="points">
              <mxPoint x="80" y="367" />
            </Array>
          </mxGeometry>
        </mxCell>
        <mxCell id="7hEb1Mnn6MyJIdi7MjDk-19" value="&lt;font style=&quot;font-size: 14px;&quot;&gt;Query&lt;/font&gt;" style="edgeLabel;html=1;align=center;verticalAlign=middle;resizable=0;points=[];" vertex="1" connectable="0" parent="7hEb1Mnn6MyJIdi7MjDk-6">
          <mxGeometry x="-0.0185" y="2" relative="1" as="geometry">
            <mxPoint as="offset" />
          </mxGeometry>
        </mxCell>
        <mxCell id="7hEb1Mnn6MyJIdi7MjDk-7" value="RAG" style="rounded=1;whiteSpace=wrap;html=1;" vertex="1" parent="WIyWlLk6GJQsqaUBKTNV-1">
          <mxGeometry x="320" y="337" width="120" height="60" as="geometry" />
        </mxCell>
        <mxCell id="7hEb1Mnn6MyJIdi7MjDk-8" value="&lt;h1 style=&quot;margin-top: 0px;&quot;&gt;&lt;font style=&quot;font-size: 14px;&quot;&gt;Study Activity (Sentence Constructor)&lt;/font&gt;&lt;/h1&gt;" style="text;html=1;whiteSpace=wrap;overflow=hidden;rounded=0;" vertex="1" parent="WIyWlLk6GJQsqaUBKTNV-1">
          <mxGeometry x="280" y="130" width="270" height="40" as="geometry" />
        </mxCell>
        <mxCell id="7hEb1Mnn6MyJIdi7MjDk-9" value="Prompt&amp;nbsp;&lt;div&gt;Cache&lt;/div&gt;" style="rounded=1;whiteSpace=wrap;html=1;" vertex="1" parent="WIyWlLk6GJQsqaUBKTNV-1">
          <mxGeometry x="480" y="337" width="120" height="60" as="geometry" />
        </mxCell>
        <mxCell id="7hEb1Mnn6MyJIdi7MjDk-10" value="Input GuardRail" style="rounded=1;whiteSpace=wrap;html=1;" vertex="1" parent="WIyWlLk6GJQsqaUBKTNV-1">
          <mxGeometry x="640" y="337" width="120" height="60" as="geometry" />
        </mxCell>
        <mxCell id="7hEb1Mnn6MyJIdi7MjDk-11" value="LLM" style="rounded=1;whiteSpace=wrap;html=1;" vertex="1" parent="WIyWlLk6GJQsqaUBKTNV-1">
          <mxGeometry x="640" y="412" width="120" height="110" as="geometry" />
        </mxCell>
        <mxCell id="7hEb1Mnn6MyJIdi7MjDk-13" value="Output GuardRail" style="rounded=1;whiteSpace=wrap;html=1;" vertex="1" parent="WIyWlLk6GJQsqaUBKTNV-1">
          <mxGeometry x="640" y="535" width="120" height="60" as="geometry" />
        </mxCell>
        <mxCell id="7hEb1Mnn6MyJIdi7MjDk-15" value="" style="endArrow=classic;html=1;rounded=0;entryX=0;entryY=0.5;entryDx=0;entryDy=0;exitX=1;exitY=0.5;exitDx=0;exitDy=0;" edge="1" parent="WIyWlLk6GJQsqaUBKTNV-1" source="7hEb1Mnn6MyJIdi7MjDk-7" target="7hEb1Mnn6MyJIdi7MjDk-9">
          <mxGeometry width="50" height="50" relative="1" as="geometry">
            <mxPoint x="470" y="517" as="sourcePoint" />
            <mxPoint x="520" y="467" as="targetPoint" />
          </mxGeometry>
        </mxCell>
        <mxCell id="7hEb1Mnn6MyJIdi7MjDk-16" value="" style="endArrow=classic;html=1;rounded=0;entryX=0;entryY=0.5;entryDx=0;entryDy=0;exitX=1;exitY=0.5;exitDx=0;exitDy=0;" edge="1" parent="WIyWlLk6GJQsqaUBKTNV-1">
          <mxGeometry width="50" height="50" relative="1" as="geometry">
            <mxPoint x="600" y="366.5" as="sourcePoint" />
            <mxPoint x="640" y="366.5" as="targetPoint" />
          </mxGeometry>
        </mxCell>
        <mxCell id="7hEb1Mnn6MyJIdi7MjDk-17" value="" style="endArrow=classic;html=1;rounded=0;exitX=0;exitY=0.5;exitDx=0;exitDy=0;entryX=0.5;entryY=1.01;entryDx=0;entryDy=0;entryPerimeter=0;" edge="1" parent="WIyWlLk6GJQsqaUBKTNV-1" source="7hEb1Mnn6MyJIdi7MjDk-13" target="7hEb1Mnn6MyJIdi7MjDk-1">
          <mxGeometry width="50" height="50" relative="1" as="geometry">
            <mxPoint x="91" y="406" as="sourcePoint" />
            <mxPoint x="330" y="377" as="targetPoint" />
            <Array as="points">
              <mxPoint x="85" y="567" />
            </Array>
          </mxGeometry>
        </mxCell>
        <mxCell id="7hEb1Mnn6MyJIdi7MjDk-20" value="&lt;font style=&quot;font-size: 14px;&quot;&gt;Response&lt;/font&gt;" style="edgeLabel;html=1;align=center;verticalAlign=middle;resizable=0;points=[];" vertex="1" connectable="0" parent="7hEb1Mnn6MyJIdi7MjDk-17">
          <mxGeometry x="0.4455" y="-2" relative="1" as="geometry">
            <mxPoint as="offset" />
          </mxGeometry>
        </mxCell>
        <mxCell id="7hEb1Mnn6MyJIdi7MjDk-21" value="Internet" style="ellipse;shape=cloud;whiteSpace=wrap;html=1;" vertex="1" parent="WIyWlLk6GJQsqaUBKTNV-1">
          <mxGeometry x="440" y="192" width="120" height="80" as="geometry" />
        </mxCell>
        <mxCell id="7hEb1Mnn6MyJIdi7MjDk-22" value="Vector Database" style="shape=cylinder3;whiteSpace=wrap;html=1;boundedLbl=1;backgroundOutline=1;size=15;" vertex="1" parent="WIyWlLk6GJQsqaUBKTNV-1">
          <mxGeometry x="340" y="190" width="60" height="80" as="geometry" />
        </mxCell>
        <mxCell id="7hEb1Mnn6MyJIdi7MjDk-24" value="" style="endArrow=classic;startArrow=classic;html=1;rounded=0;exitX=0.75;exitY=0;exitDx=0;exitDy=0;entryX=0.367;entryY=0.85;entryDx=0;entryDy=0;entryPerimeter=0;" edge="1" parent="WIyWlLk6GJQsqaUBKTNV-1" source="7hEb1Mnn6MyJIdi7MjDk-7" target="7hEb1Mnn6MyJIdi7MjDk-21">
          <mxGeometry width="50" height="50" relative="1" as="geometry">
            <mxPoint x="430" y="320" as="sourcePoint" />
            <mxPoint x="480" y="270" as="targetPoint" />
            <Array as="points">
              <mxPoint x="410" y="300" />
              <mxPoint x="484" y="300" />
            </Array>
          </mxGeometry>
        </mxCell>
        <mxCell id="7hEb1Mnn6MyJIdi7MjDk-25" value="" style="endArrow=classic;startArrow=classic;html=1;rounded=0;entryX=0.5;entryY=1;entryDx=0;entryDy=0;entryPerimeter=0;" edge="1" parent="WIyWlLk6GJQsqaUBKTNV-1" target="7hEb1Mnn6MyJIdi7MjDk-22">
          <mxGeometry width="50" height="50" relative="1" as="geometry">
            <mxPoint x="370" y="340" as="sourcePoint" />
            <mxPoint x="494" y="270" as="targetPoint" />
            <Array as="points" />
          </mxGeometry>
        </mxCell>
      </root>
    </mxGraphModel>
  </diagram>
</mxfile>
